<?xml version="1.0" encoding="UTF-8" standalone="no"?>
<!-- Created with Inkscape (http://www.inkscape.org/) -->

<svg
   xmlns:dc="http://purl.org/dc/elements/1.1/"
   xmlns:cc="http://creativecommons.org/ns#"
   xmlns:rdf="http://www.w3.org/1999/02/22-rdf-syntax-ns#"
   xmlns:svg="http://www.w3.org/2000/svg"
   xmlns="http://www.w3.org/2000/svg"
   xmlns:sodipodi="http://sodipodi.sourceforge.net/DTD/sodipodi-0.dtd"
   xmlns:inkscape="http://www.inkscape.org/namespaces/inkscape"
   version="1.2"
   width="130"
   height="130"
   id="logo"
   inkscape:version="0.48.4 r9939"
   sodipodi:docname="csrlogo1_icon.svg">
  <sodipodi:namedview
     pagecolor="#888888"
     bordercolor="#666666"
     borderopacity="1"
     objecttolerance="10"
     gridtolerance="10"
     guidetolerance="10"
     inkscape:pageopacity="1"
     inkscape:pageshadow="2"
     inkscape:window-width="1920"
     inkscape:window-height="1137"
     id="namedview3107"
     showgrid="true"
     inkscape:snap-global="false"
     inkscape:zoom="3.99"
     inkscape:cx="71.928565"
     inkscape:cy="69.169909"
     inkscape:window-x="1358"
     inkscape:window-y="-8"
     inkscape:window-maximized="1"
     inkscape:current-layer="g4129">
    <inkscape:grid
       type="xygrid"
       id="grid3113"
       empspacing="5"
       visible="true"
       enabled="true"
       snapvisiblegridlinesonly="true" />
  </sodipodi:namedview>
  <defs
     id="defs4">
    <inkscape:path-effect
       effect="spiro"
       id="path-effect3842"
       is_visible="true" />
    <inkscape:path-effect
       effect="spiro"
       id="path-effect3838"
       is_visible="true" />
    <inkscape:path-effect
       effect="spiro"
       id="path-effect3824"
       is_visible="true" />
    <inkscape:path-effect
       effect="spiro"
       id="path-effect3820"
       is_visible="true" />
    <path
       d="M 193.89294,608.19261 C 287.6806,708.76757 445.24265,714.26973 545.81761,620.48206 646.39257,526.6944 651.89473,369.13235 558.10706,268.55739 464.3194,167.98243 306.75735,162.48027 206.18239,256.26794 105.60744,350.0556 100.10526,507.61765 193.89294,608.19261 z"
       id="path3813-1"
       style="fill:none;stroke:none"
       inkscape:connector-curvature="0" />
    <path
       d="m 501.64993,573.11803 c -74.41649,69.39451 -190.99844,65.32343 -260.39293,-9.09309 -57.3222,-61.4705 -64.51652,-151.71172 -23.34167,-220.36196 8.67162,-14.45817 19.48873,-27.95863 32.43474,-40.03101 74.41654,-69.39453 190.99843,-65.32345 260.39295,9.09309 69.39452,74.41654 65.32345,190.99843 -9.09309,260.39297 z"
       id="path3851-7"
       style="fill:none;stroke:none"
       inkscape:connector-curvature="0" />
    <inkscape:path-effect
       effect="spiro"
       id="path-effect3820-4"
       is_visible="true" />
    <inkscape:path-effect
       effect="spiro"
       id="path-effect3824-0"
       is_visible="true" />
    <filter
       x="0"
       y="0"
       width="1"
       height="1"
       color-interpolation-filters="sRGB"
       id="filter4050">
      <feColorMatrix
         in="SourceGraphic"
         type="luminanceToAlpha"
         result="result14"
         id="feColorMatrix4052" />
      <feComposite
         in2="result14"
         operator="out"
         in="SourceGraphic"
         result="fbSourceGraphic"
         id="feComposite4054" />
      <feBlend
         in2="fbSourceGraphic"
         mode="normal"
         result="result15"
         id="feBlend4056" />
    </filter>
  </defs>
  <metadata
     id="metadata7">
    <rdf:RDF>
      <cc:Work
         rdf:about="">
        <dc:format>image/svg+xml</dc:format>
        <dc:type
           rdf:resource="http://purl.org/dc/dcmitype/StillImage" />
        <dc:title></dc:title>
      </cc:Work>
    </rdf:RDF>
  </metadata>
  <path
     d="M 193.5527,50.81666 C 287.34036,151.39162 444.90241,156.89378 545.47737,63.10611 646.05233,-30.68155 651.55449,-188.2436 557.76682,-288.81856 463.97916,-389.39352 306.41711,-394.89567 205.84215,-301.10801 105.2672,-207.32035 99.765024,-49.7583 193.5527,50.81666 z"
     id="path3813"
     style="fill:none;stroke:none"
     inkscape:connector-curvature="0" />
  <path
     d="M 501.30969,15.74208 C 426.8932,85.13659 310.31125,81.06551 240.91676,6.64899 c -57.3222,-61.4705 -64.51652,-151.71172 -23.34167,-220.36196 8.67162,-14.45817 19.48873,-27.95863 32.43474,-40.03101 74.41654,-69.39453 190.99843,-65.32345 260.39295,9.09309 69.39452,74.41654 65.32345,190.99843 -9.09309,260.39297 z"
     id="path3851"
     style="fill:none;stroke:none"
     inkscape:connector-curvature="0" />
  <path
     d="m 414.86837,104.28594 c 91.28487,85.12454 234.29304,80.13058 319.41758,-11.15433 85.12452,-91.28483 80.13058,-234.29301 -11.15433,-319.41755 -91.28486,-85.12456 -234.29303,-80.13057 -319.41758,11.1543 -85.12452,91.28486 -80.13057,234.29306 11.15433,319.41758 z"
     id="path3188"
     style="fill:none;stroke:none"
     inkscape:connector-curvature="0" />
  <path
     d="M 396.59903,-91.322292 C 413.3456,-186.29659 503.91329,-249.71278 598.88758,-232.96627 693.86188,-216.21971 757.27812,-125.65204 740.53156,-30.6777 723.78498,64.29663 633.21734,127.71282 538.243,110.96627 443.26869,94.21971 379.85246,3.65205 396.59903,-91.322292 z"
     id="path3969"
     style="fill:none;stroke:none"
     inkscape:connector-curvature="0" />
  <rect
     width="410"
     height="40"
     x="-130.34024"
     y="-105.01378"
     id="rect4103"
     style="fill:none;stroke-width:3;stroke-miterlimit:4;stroke-dasharray:none" />
  <g
     transform="matrix(0.531441,0,0,0.531441,-168.38993,-46.98384)"
     id="g4129">
    <g
       id="g4446"
       transform="matrix(0.50834273,0,0,0.51151128,150.90488,166.37364)">
      <path
         transform="matrix(1.8816764,0,0,1.8816764,316.85536,-175.02632)"
         inkscape:connector-curvature="0"
         style="fill:#ffffff;fill-opacity:1;stroke-width:3;stroke-linejoin:miter;stroke-miterlimit:21.10000038;stroke-dasharray:none;stroke-dashoffset:0"
         id="path3795"
         d="m 219.65976,41.48624 a 19,34.5 0 0 1 -0.29273,6.03267" />
      <path
         transform="matrix(1.8816764,0,0,1.8816764,316.85536,-175.02632)"
         inkscape:connector-curvature="0"
         style="fill:#ffffff;fill-opacity:1;stroke-width:3;stroke-linejoin:miter;stroke-miterlimit:21.10000038;stroke-dasharray:none;stroke-dashoffset:0"
         id="path3797"
         d="M 262.65976,103.98624 A 24,24 0 0 1 262.29,108.18288" />
      <g
         style="font-size:75px;font-style:normal;font-variant:normal;font-weight:normal;font-stretch:normal;line-height:125%;letter-spacing:20px;word-spacing:0px;fill:#000000;fill-opacity:1;stroke:none;font-family:Constantia;-inkscape-font-specification:Constantia"
         id="text3958"
         transform="translate(1.4072642,0)">
        <path
           inkscape:connector-curvature="0"
           style="font-size:75px;font-style:normal;font-variant:normal;font-weight:normal;font-stretch:normal;letter-spacing:20px;fill:#000000;fill-opacity:1;font-family:Constantia;-inkscape-font-specification:Constantia"
           id="path3115"
           d="m 426.64822,239.96683 c -0.93357,1.12883 -1.76905,2.14867 -2.50646,3.05952 -0.73745,0.91084 -1.40016,1.74091 -1.98814,2.49021 -0.46353,0.59878 -0.52235,1.16792 -0.17646,1.70742 l 2.36233,3.52187 -0.9189,1.28351 c -2.19219,-1.90798 -4.40769,-3.78774 -6.64653,-5.63926 -2.27648,-1.88266 -4.63274,-3.78376 -7.06877,-5.70332 l 0.89068,-1.30685 4.33469,1.82649 c 0.57925,0.25727 1.0744,0.17571 1.48545,-0.24471 0.64117,-0.73699 1.35155,-1.56724 2.13115,-2.49075 0.77957,-0.9235 1.63613,-1.94967 2.56969,-3.0785 l 18.92764,-22.88705 c 0.79348,-0.95948 1.5045,-1.8288 2.13305,-2.60798 0.62848,-0.77911 1.19005,-1.4869 1.68473,-2.12334 0.38568,-0.50469 0.42442,-1.01123 0.11621,-1.51964 l -2.58916,-3.9946 0.94712,-1.26017 c 2.36471,2.08242 4.69473,4.07271 6.99005,5.97089 0.45149,0.37345 1.03699,0.83389 1.75648,1.38132 0.71941,0.5475 1.59326,1.21473 2.62155,2.00171 1.04702,0.80259 1.91698,1.47453 2.60989,2.01581 0.69281,0.54134 1.23678,0.97537 1.63192,1.30209 4.2895,3.54749 6.83763,7.01709 7.64438,10.4088 0.80664,3.39174 -0.0736,6.63974 -2.64083,9.74402 -2.31836,2.80327 -4.93086,4.46823 -7.83751,4.9949 -2.90674,0.52667 -6.25417,0.0156 -10.0423,-1.53314 -0.30844,2.78635 -0.66034,5.43376 -1.05571,7.94224 -0.39544,2.50846 -0.7447,4.81748 -1.04779,6.92706 -0.30316,2.10956 -0.54069,3.99616 -0.7126,5.65981 -0.17198,1.66362 -0.20424,3.06259 -0.0968,4.19692 0.0553,0.58431 0.14563,1.12632 0.27101,1.62602 0.12532,0.49965 0.29978,0.96867 0.5234,1.40705 0.22355,0.43833 0.4815,0.87343 0.77387,1.3053 0.29229,0.43181 0.62695,0.89867 1.00398,1.40056 l -0.94224,1.31173 c -1.49466,-0.95096 -2.70292,-1.80763 -3.62476,-2.56999 -0.7714,-0.63795 -1.43314,-1.2169 -1.98522,-1.73683 -0.55214,-0.51998 -1.00728,-1.02311 -1.36543,-1.50939 -0.35821,-0.48633 -0.64683,-0.97054 -0.86586,-1.45265 -0.21908,-0.48216 -0.39065,-1.01214 -0.5147,-1.58995 -0.28906,-1.22117 -0.35005,-2.68935 -0.18296,-4.40452 0.16703,-1.71521 0.42645,-3.59955 0.77827,-5.65302 0.35175,-2.0535 0.74452,-4.22358 1.1783,-6.51024 0.43371,-2.28668 0.7932,-4.57933 1.07845,-6.87795 0.0912,-0.68492 0.14693,-1.24076 0.16724,-1.66752 0.0202,-0.42676 -0.025,-0.81265 -0.13563,-1.15765 -0.11073,-0.34499 -0.29796,-0.67408 -0.56168,-0.98725 -0.26378,-0.31316 -0.63245,-0.68142 -1.10602,-1.10477 l -1.90056,-1.66681 z m 9.84891,-11.90916 c 1.10094,1.00555 2.14058,1.91286 3.11893,2.72193 3.25476,2.69173 6.21121,3.97243 8.86936,3.84212 2.65806,-0.13031 5.2085,-1.67235 7.65133,-4.62613 2.36493,-2.85969 3.36766,-5.54705 3.00818,-8.06208 -0.35958,-2.515 -2.08208,-5.04836 -5.1675,-7.60007 -0.52684,-0.43563 -1.10681,-0.88359 -1.73992,-1.34388 -0.63321,-0.46024 -1.32897,-0.94058 -2.08727,-1.44104 z" />
        <path
           inkscape:connector-curvature="0"
           style="font-size:75px;font-style:normal;font-variant:normal;font-weight:normal;font-stretch:normal;letter-spacing:20px;fill:#000000;fill-opacity:1;font-family:Constantia;-inkscape-font-specification:Constantia"
           id="path3117"
           d="m 480.67964,259.17988 c -2.82725,7.43992 -3.48696,13.71204 -1.97914,18.81639 1.50779,5.10434 5.17146,8.76225 10.99105,10.97374 5.72823,2.17678 10.63893,1.98614 14.73209,-0.57192 4.09307,-2.55808 7.60094,-7.68259 10.52361,-15.37353 2.74045,-7.21168 3.39867,-13.30807 1.97468,-18.2892 -1.4241,-4.98108 -5.16001,-8.62074 -11.20774,-10.91898 -5.86524,-2.22878 -10.81016,-2.05115 -14.83478,0.5329 -4.02468,2.58412 -7.4246,7.52765 -10.19977,14.8306 z m 42.2411,15.54268 c -3.00073,7.89634 -7.65609,13.39443 -13.96607,16.49429 -6.31008,3.09983 -13.49314,3.11907 -21.54921,0.0577 -7.64532,-2.90529 -12.71847,-7.37304 -15.21946,-13.40328 -2.50101,-6.03023 -2.31188,-12.83376 0.56739,-20.41062 3.00066,-7.89631 7.6284,-13.28737 13.88323,-16.17318 6.25477,-2.88574 13.37599,-2.81095 21.36366,0.22438 7.66807,2.91399 12.77864,7.31761 15.33174,13.21089 2.55298,5.89333 2.41588,12.55993 -0.41128,19.99982 z" />
        <path
           inkscape:connector-curvature="0"
           style="font-size:75px;font-style:normal;font-variant:normal;font-weight:normal;font-stretch:normal;letter-spacing:20px;fill:#000000;fill-opacity:1;font-family:Constantia;-inkscape-font-specification:Constantia"
           id="path3119"
           d="m 548.91527,278.59512 c -0.0613,7.95876 1.50297,14.0684 4.69291,18.32893 3.1899,4.26055 7.89756,6.4148 14.12299,6.46276 6.12771,0.0472 10.66509,-1.84049 13.61215,-5.66311 2.94697,-3.82262 4.45217,-9.84757 4.51561,-18.07488 0.0594,-7.71458 -1.44515,-13.65896 -4.51362,-17.83316 -3.06856,-4.1741 -7.83758,-6.2861 -14.30708,-6.336 -6.27425,-0.0483 -10.84825,1.83913 -13.72201,5.66227 -2.87379,3.82323 -4.34077,9.64095 -4.40095,17.45319 z m 45.00965,-0.12931 c -0.0651,8.44703 -2.51608,15.22156 -7.35284,20.32359 -4.83686,5.10205 -11.56421,7.61987 -20.18208,7.55348 -8.17849,-0.063 -14.48935,-2.48597 -18.9326,-7.26889 -4.44327,-4.78289 -6.63368,-11.22696 -6.57122,-19.3322 0.0651,-8.44698 2.52738,-15.11155 7.38692,-19.99373 4.85952,-4.88209 11.56162,-7.29024 20.10631,-7.22446 8.20284,0.0633 14.52647,2.41306 18.97091,7.04944 4.44433,4.63647 6.63587,10.93406 6.5746,18.89277 z" />
        <path
           inkscape:connector-curvature="0"
           style="font-size:75px;font-style:normal;font-variant:normal;font-weight:normal;font-stretch:normal;letter-spacing:20px;fill:#000000;fill-opacity:1;font-family:Constantia;-inkscape-font-specification:Constantia"
           id="path3121"
           d="m 646.89433,236.36295 c 2.17942,-0.72532 4.13615,-1.41816 5.87019,-2.0785 1.68835,-0.64283 3.94116,-1.55289 6.75844,-2.7302 l 0.69726,1.4195 -3.80398,2.97673 c -0.4553,0.38241 -0.5814,0.87454 -0.37829,1.47637 0.52772,1.5233 1.22599,3.42571 2.09481,5.70724 l 10.56873,27.75563 c 1.02511,2.69231 1.91236,4.95381 2.66176,6.7845 0.22258,0.5161 0.67666,0.74812 1.36225,0.69606 l 4.58905,-0.29752 0.62881,1.44556 c -3.03783,1.07837 -5.92567,2.13881 -8.66353,3.18132 -2.69233,1.02518 -5.33736,2.07154 -7.93509,3.13907 l -0.69726,-1.41951 3.47965,-2.69648 c 0.48672,-0.3682 0.61988,-0.87608 0.39949,-1.52364 -0.64075,-1.81981 -1.47369,-4.07587 -2.4988,-6.76818 l -11.28547,-29.63794 -1.68888,46.60843 -2.39409,1.22511 -32.46821,-33.91566 11.28547,29.63794 c 1.02515,2.69229 1.90371,4.93098 2.63569,6.71605 0.26607,0.63017 0.71471,0.91651 1.34594,0.85902 l 4.28919,-0.26172 0.62881,1.44557 c -2.74118,0.96541 -5.0244,1.79562 -6.84966,2.49064 -1.77965,0.67765 -4.12807,1.61106 -7.04526,2.80024 l -0.69726,-1.41951 3.72737,-2.86918 c 0.52371,-0.40841 0.69706,-0.87934 0.52006,-1.4128 -0.65808,-1.86546 -1.4997,-4.14434 -2.52486,-6.83663 l -10.56873,-27.75563 c -0.86877,-2.28155 -1.61267,-4.16659 -2.23171,-5.65511 -0.24869,-0.58448 -0.67017,-0.8681 -1.26445,-0.85085 l -4.75201,0.2812 -0.62881,-1.44557 c 2.97802,-1.02941 5.32263,-1.86994 7.03381,-2.52157 1.96218,-0.7471 3.98683,-1.57029 6.07396,-2.46958 l 30.17571,31.49696 z" />
        <path
           inkscape:connector-curvature="0"
           style="font-size:75px;font-style:normal;font-variant:normal;font-weight:normal;font-stretch:normal;letter-spacing:20px;fill:#000000;fill-opacity:1;font-family:Constantia;-inkscape-font-specification:Constantia"
           id="path3123"
           d="m 688.74408,211.09287 c -2.52201,0.97009 -4.61224,2.13801 -6.27068,3.50375 -2.48762,2.04875 -3.97449,4.28533 -4.4606,6.70977 -0.48606,2.42452 0.15555,4.71097 1.92486,6.85935 1.00884,1.22501 2.15263,2.08581 3.43138,2.58241 1.27877,0.49667 2.64344,0.73278 4.09401,0.70834 1.45059,-0.0244 2.95688,-0.22116 4.51887,-0.59037 1.56199,-0.36914 3.15392,-0.77878 4.77577,-1.22892 1.76597,-0.5055 3.52141,-0.94701 5.26632,-1.32454 1.7449,-0.37745 3.46127,-0.54958 5.1491,-0.51638 1.68781,0.0333 3.31743,0.39909 4.88887,1.09745 1.57141,0.69843 3.00898,1.83914 4.31271,3.42215 3.08854,3.75034 4.13315,7.69745 3.13382,11.84133 -0.99936,4.14392 -3.82648,8.13263 -8.48137,11.96616 -2.99649,2.46775 -6.7324,4.6905 -11.20773,6.66826 l -0.35586,-0.0865 -6.53024,-10.7521 1.10913,-1.24551 8.5905,6.39866 c 2.6495,-0.85363 5.02019,-2.14183 7.11208,-3.8646 2.80801,-2.31253 4.48666,-4.73868 5.03595,-7.27848 0.54926,-2.53975 -0.12284,-4.95923 -2.01632,-7.25844 -0.99332,-1.2061 -2.12076,-2.05665 -3.38232,-2.55165 -1.26159,-0.49494 -2.59272,-0.71913 -3.99341,-0.67259 -1.4007,0.0466 -2.86874,0.25143 -4.40412,0.61448 -1.53539,0.36311 -3.10459,0.76194 -4.7076,1.19649 -1.78481,0.52109 -3.57074,0.96399 -5.35778,1.3287 -1.78703,0.36477 -3.54552,0.52415 -5.27547,0.47814 -1.72994,-0.046 -3.42026,-0.45668 -5.07097,-1.23214 -1.65067,-0.77541 -3.17443,-2.01119 -4.57129,-3.70734 -2.80917,-3.41105 -3.70522,-7.10096 -2.68816,-11.06975 1.01711,-3.9687 3.63637,-7.69135 7.85781,-11.16797 2.97765,-2.45217 6.38375,-4.67215 10.21831,-6.65994 l 0.36085,0.0349 5.59569,10.19339 -0.96778,1.1291 z" />
      </g>
      <g
         style="font-size:75px;font-style:normal;font-variant:normal;font-weight:normal;font-stretch:normal;line-height:125%;letter-spacing:10px;word-spacing:0px;fill:#000000;fill-opacity:1;stroke:none;font-family:Constantia;-inkscape-font-specification:Constantia"
         id="text3971"
         transform="translate(0.43469238,0)">
        <path
           inkscape:connector-curvature="0"
           style="font-size:75px;font-style:normal;font-variant:normal;font-weight:normal;font-stretch:normal;fill:#000000;fill-opacity:1;font-family:Constantia;-inkscape-font-specification:Constantia"
           id="path3066"
           d="m 365.21456,12.518136 -0.11686,1.476615 -9.98628,0.428575 c -1.4211,2.778173 -2.41017,5.368277 -2.96722,7.770317 -1.35113,5.826871 -0.37932,10.876626 2.91543,15.14928 3.29483,4.272706 8.1886,7.161842 14.68133,8.667416 6.94466,1.610394 12.92729,0.992747 17.94792,-1.852941 5.02064,-2.84565 8.31133,-7.633776 9.87208,-14.364393 0.87688,-3.781461 1.07525,-7.933317 0.59514,-12.455582 l 1.69635,-0.02016 c 2.14802,5.435331 2.53542,11.113955 1.1622,17.035888 -1.78135,7.681932 -5.56063,13.334172 -11.33785,16.956738 -5.77721,3.622589 -12.49487,4.545965 -20.15302,2.77013 -8.15754,-1.891631 -14.01348,-5.981295 -17.56785,-12.269004 -3.55429,-6.287666 -4.36082,-13.617314 -2.41958,-21.988966 0.93207,-4.019281 2.37372,-8.020679 4.32493,-12.0042077 l 0.3433,-0.1835416 z" />
        <path
           inkscape:connector-curvature="0"
           style="font-size:75px;font-style:normal;font-variant:normal;font-weight:normal;font-stretch:normal;fill:#000000;fill-opacity:1;font-family:Constantia;-inkscape-font-specification:Constantia"
           id="path3068"
           d="m 379.06836,-45.460613 46.47007,10.528152 c 1.74717,0.397055 3.00765,0.546673 3.78143,0.448855 0.77374,-0.09774 1.53458,-0.457717 2.28254,-1.079944 l 2.72334,-2.341975 1.36445,0.789523 c -1.79033,2.651255 -3.42445,5.127127 -4.90238,7.427622 -1.50437,2.341648 -3.24842,5.124134 -5.23217,8.347466 l -1.40403,-0.727901 1.01773,-3.481251 c 0.12012,-0.50315 0.14897,-0.898121 0.0866,-1.184913 -0.0624,-0.286728 -0.27852,-0.548872 -0.64823,-0.786434 -0.41083,-0.263886 -1.01929,-0.502444 -1.8254,-0.715674 -0.80614,-0.213162 -1.88916,-0.480918 -3.24905,-0.803268 l -10.11792,-2.408596 -9.54072,14.850767 6.14808,8.5201345 c 0.87316,1.1703405 1.56947,2.0964807 2.08895,2.7784234 0.51949,0.6819652 0.97436,1.1483043 1.36463,1.3990188 0.34919,0.2243421 0.67376,0.2950241 0.97372,0.2120462 0.29995,-0.082959 0.63692,-0.2799891 1.01089,-0.5910919 l 2.67273,-2.3309578 1.42607,0.8291104 c -1.93546,2.8771689 -3.49701,5.2400681 -4.68465,7.0887048 -1.18764,1.848646 -2.48303,3.9327561 -3.88617,6.2523368 L 405.565,6.862451 406.60907,3.1369531 c 0.25496,-0.9388869 0.24445,-1.758146 -0.0315,-2.45777983 -0.27599,-0.6996234 -0.81314,-1.62507714 -1.61148,-2.77636397 L 377.49174,-41.990199 z m 18.73482,25.921175 8.15514,-12.694017 -20.83654,-4.898426 z" />
        <path
           inkscape:connector-curvature="0"
           style="font-size:75px;font-style:normal;font-variant:normal;font-weight:normal;font-stretch:normal;fill:#000000;fill-opacity:1;font-family:Constantia;-inkscape-font-specification:Constantia"
           id="path3070"
           d="m 454.08087,-116.44012 c 1.94488,-1.22206 3.68115,-2.35968 5.20881,-3.41286 1.48743,-1.02533 3.45974,-2.44427 5.91691,-4.25685 l 1.01437,1.21336 -2.98841,3.79481 c -0.35148,0.47958 -0.35712,0.98758 -0.0169,1.52398 0.87432,1.35443 2.00433,3.03664 3.39003,5.04664 l 16.85673,24.452462 c 1.63506,2.371919 3.0339,4.358077 4.19654,5.95848 0.33876,0.448495 0.83495,0.566061 1.48857,0.352698 l 4.38717,-1.378628 0.95406,1.254923 c -2.6949,1.768824 -5.24837,3.484621 -7.6604,5.147398 -2.37193,1.635126 -4.69287,3.279586 -6.96283,4.933387 l -1.01437,-1.213353 2.73989,-3.445575 c 0.38538,-0.473235 0.39414,-0.998205 0.0263,-1.574913 -1.05452,-1.615632 -2.3993,-3.609403 -4.03436,-5.981318 l -17.99992,-26.110771 9.42605,45.67655 -2.03474,1.758522 -39.59258,-25.236563 17.99991,26.110772 c 1.63509,2.371893 3.02008,4.33795 4.15497,5.898178 0.40808,0.548972 0.91189,0.720596 1.51141,0.514872 l 4.10439,-1.272648 0.95406,1.254923 c -2.43356,1.588659 -4.45436,2.937253 -6.0624,4.045786 -1.56786,1.080831 -3.62749,2.545154 -6.17891,4.392973 l -1.01436,-1.213353 2.93952,-3.672157 c 0.41176,-0.521074 0.46834,-1.0197 0.16974,-1.495879 -1.0822,-1.655859 -2.44084,-3.66973 -4.07593,-6.041621 l -16.85674,-24.452467 c -1.38566,-2.010026 -2.55587,-3.664524 -3.51063,-4.963496 -0.38036,-0.508717 -0.85713,-0.684147 -1.43032,-0.526292 l -4.54934,1.401466 -0.95407,-1.254923 c 2.64844,-1.707072 4.72642,-3.080258 6.23395,-4.119561 1.72868,-1.191631 3.49997,-2.47201 5.31389,-3.841141 l 36.79135,23.431358 z" />
        <path
           inkscape:connector-curvature="0"
           style="font-size:75px;font-style:normal;font-variant:normal;font-weight:normal;font-stretch:normal;fill:#000000;fill-opacity:1;font-family:Constantia;-inkscape-font-specification:Constantia"
           id="path3072"
           d="m 500.15491,-137.14394 c 3.09262,-0.60331 6.09109,-1.23532 8.99541,-1.89605 1.08423,-0.29666 2.84152,-0.77152 5.27187,-1.42458 2.43034,-0.65295 4.07402,-1.07693 4.93104,-1.27194 5.14206,-1.16966 9.24904,-1.08362 12.32096,0.25811 3.07188,1.34183 5.0221,3.83387 5.85068,7.47612 1.33214,5.85629 -0.91506,10.56131 -6.74163,14.11506 3.83069,-0.22039 7.04043,0.48913 9.62925,2.12856 2.58875,1.6395 4.2568,4.10184 5.00416,7.38702 1.08303,4.7612 0.19513,8.83777 -2.6637,12.229725 -2.85891,3.391979 -7.3474,5.783835 -13.46548,7.175575 -1.21412,0.276187 -2.53752,0.539676 -3.9702,0.790468 -1.43271,0.250799 -3.02988,0.576565 -4.7915,0.977297 -2.88052,0.65526 -5.82432,1.362472 -8.83142,2.121638 l -0.49213,-1.502988 4.09164,-2.320359 c 0.55723,-0.30202 0.79467,-0.744118 0.71232,-1.326296 -0.19281,-0.957644 -0.41729,-2.027018 -0.67344,-3.208125 -0.25617,-1.181089 -0.54671,-2.485814 -0.87162,-3.914179 l -6.58778,-28.959866 c -0.27618,-1.21406 -0.53124,-2.30777 -0.76517,-3.28115 -0.23393,-0.97329 -0.45215,-1.85004 -0.65467,-2.63027 -0.1646,-0.61349 -0.54233,-0.9532 -1.13319,-1.01915 l -4.7447,-0.38539 z m 18.07386,22.32845 4.93068,21.675264 c 0.77373,0.09941 1.63889,0.07787 2.59549,-0.06463 0.95656,-0.142482 1.82764,-0.30308 2.61326,-0.481793 3.95175,-0.898941 6.73521,-2.558669 8.35039,-4.97919 1.61512,-2.420491 2.0003,-5.487601 1.15553,-9.201341 -0.84482,-3.71369 -2.51315,-6.2323 -5.005,-7.55583 -2.4919,-1.32347 -6.0589,-1.45722 -10.70103,-0.40126 -1.35695,0.3087 -2.67006,0.64496 -3.93932,1.00878 z m -0.64984,-2.85671 c 1.48137,-0.31191 2.98385,-0.64117 4.50744,-0.98779 3.52325,-0.80144 5.98996,-2.25766 7.40013,-4.36868 1.41012,-2.11094 1.74695,-4.78523 1.01049,-8.02287 -0.77442,-3.40419 -2.25333,-5.6404 -4.43672,-6.70863 -2.18343,-1.06813 -5.01297,-1.20689 -8.48862,-0.4163 -0.61896,0.14085 -1.29336,0.31304 -2.02321,0.51657 -0.72987,0.20364 -1.51248,0.45052 -2.34782,0.74064 z" />
        <path
           inkscape:connector-curvature="0"
           style="font-size:75px;font-style:normal;font-variant:normal;font-weight:normal;font-stretch:normal;fill:#000000;fill-opacity:1;font-family:Constantia;-inkscape-font-specification:Constantia"
           id="path3074"
           d="m 579.41521,-106.70228 c -0.14387,1.45778 -0.26727,2.77036 -0.37019,3.93776 -0.10295,1.16742 -0.18902,2.22609 -0.25821,3.176032 -0.05,0.755577 0.21905,1.260518 0.80728,1.514824 l 3.92662,1.601851 -0.0453,1.577884 c -2.88406,-0.358201 -5.77169,-0.679956 -8.66291,-0.965265 -2.93983,-0.290108 -5.95613,-0.550962 -9.04892,-0.782565 l 0.009,-1.581481 4.61569,-0.906079 c 0.62417,-0.110131 0.98933,-0.454352 1.09548,-1.032661 0.12018,-0.96944 0.2457,-2.05489 0.37654,-3.25635 0.13081,-1.20145 0.26815,-2.53106 0.41202,-3.98883 l 2.91665,-29.55615 c 0.12226,-1.23906 0.22647,-2.35727 0.31264,-3.35465 0.0861,-0.99729 0.15663,-1.89804 0.21146,-2.70226 0.038,-0.63405 -0.21276,-1.07585 -0.75238,-1.32541 l -4.37881,-1.86727 0.0818,-1.57428 c 3.12459,0.40652 6.16894,0.756 9.13308,1.04846 0.58308,0.0576 1.32591,0.11249 2.22848,0.16471 0.90253,0.0523 2.00005,0.11769 3.29255,0.19612 1.31676,0.0809 2.41368,0.15237 3.29076,0.21434 0.87703,0.0621 1.57066,0.11825 2.08091,0.16855 5.53946,0.54669 9.59099,2.0014 12.15459,4.36414 2.56351,2.36283 3.64749,5.54864 3.25194,9.55745 -0.35729,3.62014 -1.59434,6.46038 -3.71116,8.52073 -2.11691,2.0604 -5.17896,3.50618 -9.18617,4.33735 1.30045,2.48348 2.48724,4.876 3.56038,7.17755 1.07308,2.30158 2.07305,4.41193 2.99994,6.33107 0.92681,1.91915 1.78353,3.61671 2.57016,5.09269 0.78655,1.475986 1.54117,2.654421 2.26386,3.53531 0.37223,0.453791 0.7499,0.852916 1.133,1.197376 0.38302,0.344458 0.7897,0.636049 1.22004,0.874775 0.43026,0.238721 0.88724,0.455546 1.37097,0.650475 0.48364,0.194923 1.02199,0.395244 1.61505,0.600963 l -0.0489,1.614328 c -1.77094,0.04604 -3.25164,0.01031 -4.4421,-0.107162 -0.99619,-0.09831 -1.86844,-0.208914 -2.61679,-0.331826 -0.74842,-0.122922 -1.40697,-0.286039 -1.97565,-0.489353 -0.56876,-0.203322 -1.07861,-0.443763 -1.52957,-0.721324 -0.45104,-0.277569 -0.88936,-0.621348 -1.31499,-1.03134 -0.92185,-0.85148 -1.79247,-2.035229 -2.61187,-3.551252 -0.81947,-1.51602 -1.65677,-3.22393 -2.5119,-5.12374 -0.85519,-1.8998 -1.74148,-3.9192 -2.65887,-6.05822 -0.91745,-2.139 -1.89981,-4.24148 -2.94707,-6.30745 -0.30693,-0.61905 -0.57115,-1.11125 -0.79267,-1.47659 -0.22156,-0.3653 -0.47459,-0.66012 -0.75909,-0.88448 -0.28454,-0.22432 -0.62365,-0.39271 -1.01732,-0.50518 -0.39371,-0.11243 -0.90521,-0.21197 -1.53449,-0.29862 l -2.50745,-0.32104 z m 1.51766,-15.3794 c 1.47485,0.21917 2.84398,0.39108 4.10739,0.51572 4.20319,0.41481 7.37082,-0.17418 9.50291,-1.76696 2.13202,-1.59273 3.38625,-4.29634 3.76271,-8.11085 0.36439,-3.69296 -0.30487,-6.48213 -2.0078,-8.36751 -1.703,-1.88529 -4.54676,-3.02456 -8.53128,-3.4178 -0.68032,-0.0671 -1.4116,-0.11472 -2.19384,-0.1429 -0.78229,-0.0281 -1.6277,-0.0379 -2.53622,-0.0295 z" />
        <path
           inkscape:connector-curvature="0"
           style="font-size:75px;font-style:normal;font-variant:normal;font-weight:normal;font-stretch:normal;fill:#000000;fill-opacity:1;font-family:Constantia;-inkscape-font-specification:Constantia"
           id="path3076"
           d="m 637.9899,-93.48451 c -0.51928,1.369724 -0.98524,2.616048 -1.39787,3.738978 -0.41267,1.122932 -0.78067,2.145297 -1.104,3.067099 -0.19354,0.579369 0.0588,1.118907 0.75714,1.618618 l 3.4151,2.665424 -0.48972,1.498412 c -2.91896,-1.184909 -5.73673,-2.292295 -8.45332,-3.322162 -2.76228,-1.047185 -5.60601,-2.086085 -8.53121,-3.116704 l 0.42124,-1.524376 4.6922,0.329744 c 0.63129,0.05656 1.07362,-0.180451 1.32699,-0.71103 0.369,-0.904491 0.7734,-1.919582 1.21322,-3.045276 0.43979,-1.125687 0.91933,-2.373391 1.4386,-3.743117 l 10.52807,-27.77107 c 0.44135,-1.16423 0.83374,-2.21651 1.17718,-3.15685 0.34339,-0.94026 0.64649,-1.79141 0.90928,-2.55345 0.20216,-0.60216 0.0753,-1.0941 -0.38046,-1.47582 l -3.73985,-2.9452 0.48972,-1.49841 c 2.91026,1.20778 5.7237,2.32658 8.44034,3.35641 2.7394,1.03857 5.58747,2.06605 8.54419,3.08246 l -0.42124,1.52437 -4.72645,-0.34272 c -0.59985,-0.0707 -1.03076,0.17064 -1.29275,0.72401 -0.32576,0.79039 -0.67391,1.65709 -1.04445,2.60012 -0.3706,0.94309 -0.76792,1.97393 -1.19196,3.0925 z" />
        <path
           inkscape:connector-curvature="0"
           style="font-size:75px;font-style:normal;font-variant:normal;font-weight:normal;font-stretch:normal;fill:#000000;fill-opacity:1;font-family:Constantia;-inkscape-font-specification:Constantia"
           id="path3078"
           d="m 662.77835,-68.879478 c -2.34142,-1.801256 -4.76321,-3.618137 -7.26538,-5.450648 l 0.84406,-1.337427 4.39637,1.672579 c 0.62219,0.232238 1.11416,0.133271 1.47591,-0.296902 0.61479,-0.759136 1.29547,-1.613907 2.04203,-2.564314 0.74654,-0.950406 1.5664,-2.006125 2.4596,-3.167158 l 18.10925,-23.539912 c 0.75917,-0.98685 1.43911,-1.88069 2.03981,-2.68154 0.60063,-0.80078 1.13691,-1.52792 1.60885,-2.1814 0.36765,-0.51797 0.38852,-1.02556 0.0626,-1.52279 l -2.72835,-3.90086 0.90212,-1.29277 c 2.43664,1.99778 4.83535,3.90471 7.19616,5.72081 1.93501,1.48867 3.83955,2.87683 5.71362,4.16448 1.87398,1.2877 3.75917,2.66097 5.65557,4.11981 6.77263,5.210244 10.67463,10.668555 11.70601,16.374949 1.03125,5.70641 -0.79025,11.59764 -5.4645,17.673708 -5.50801,7.159677 -11.67562,11.26297 -18.50286,12.30989 -6.82732,1.046876 -13.65633,-1.057115 -20.48704,-6.311978 -1.87701,-1.443991 -3.5285,-2.760686 -4.95447,-3.950088 -1.42599,-1.189425 -3.0291,-2.468904 -4.80934,-3.838439 z m 4.7738,-0.43966 c 1.02258,1.033091 2.06192,1.994368 3.11802,2.883833 1.05607,0.889444 2.1356,1.758432 3.2386,2.606967 5.10852,3.929981 10.15538,5.417635 15.14061,4.462964 4.98516,-0.954705 9.86702,-4.537805 14.64559,-10.749311 4.64448,-6.037364 6.81949,-11.487224 6.52503,-16.349595 -0.29458,-4.862353 -3.18961,-9.407394 -8.68511,-13.63514 -0.87082,-0.66986 -1.84839,-1.39111 -2.93272,-2.16374 -1.08442,-0.77258 -2.33142,-1.62408 -3.74099,-2.55451 z" />
        <path
           inkscape:connector-curvature="0"
           style="font-size:75px;font-style:normal;font-variant:normal;font-weight:normal;font-stretch:normal;fill:#000000;fill-opacity:1;font-family:Constantia;-inkscape-font-specification:Constantia"
           id="path3080"
           d="m 759.49248,-17.201282 -0.94928,-1.137066 6.88231,-7.14686 c -0.88125,-2.9505 -2.00092,-5.54149 -3.35901,-7.772978 -3.17332,-5.21376 -7.41592,-8.204758 -12.72782,-8.973005 -5.312,-0.76823 -11.07538,0.73891 -17.29015,4.521426 -6.27739,3.820603 -10.29594,8.452817 -12.05567,13.896659 -1.75975,5.443821 -0.99587,10.866464 2.29164,16.2679451 1.10427,1.8143615 2.41893,3.4578438 3.94398,4.9304521 l 8.35245,-5.0835591 c 1.04272,-0.6346774 1.98845,-1.2174235 2.83719,-1.74824 0.84868,-0.530866 1.62122,-1.0224951 2.31764,-1.4748901 0.5295,-0.350897 0.72129,-0.810592 0.57537,-1.379087 l -1.14088,-4.621583 1.30707,-0.881266 c 1.5748,2.728363 3.11111,5.322999 4.60892,7.783918 1.52313,2.5025799 3.0268,4.9027246 4.51103,7.200441 l -1.24996,0.9751134 -3.07635,-2.8005363 c -0.47151,-0.3990063 -0.95978,-0.47338 -1.46479,-0.2231213 -0.84693,0.4868364 -1.7063,0.9884356 -2.57809,1.5047992 -0.87187,0.5163019 -1.8083,1.0791007 -2.80931,1.6883982 l -10.01043,6.092655 -0.33321,-0.054419 c -3.6113,-3.63250807 -6.50219,-7.2318484 -8.67268,-10.7980318 -4.45526,-7.3201454 -6.06027,-14.3243644 -4.81503,-21.0126794 1.24523,-6.688328 5.34021,-12.145877 12.28496,-16.372661 7.38266,-4.493319 14.52605,-5.775756 21.43018,-3.847315 6.90404,1.928469 12.72333,6.782161 17.45789,14.56109 2.04351,3.35766 3.76111,7.142368 5.15278,11.354136 l -0.13602,0.340012 z" />
        <path
           inkscape:connector-curvature="0"
           style="font-size:75px;font-style:normal;font-variant:normal;font-weight:normal;font-stretch:normal;fill:#000000;fill-opacity:1;font-family:Constantia;-inkscape-font-specification:Constantia"
           id="path3082"
           d="m 787.26648,22.152784 1.89273,8.695312 c 1.1631,5.343606 2.43888,10.975029 3.82733,16.894288 l -0.23953,0.277011 -11.50877,0.331378 -0.56204,-1.376804 7.783,-4.017817 -3.59852,-16.531829 -19.68075,4.283953 0.7088,3.25627 c 0.54,2.480951 1.16621,5.242988 1.87861,8.286119 0.15883,0.615027 0.55723,0.953065 1.19519,1.014114 l 5.10335,0.200895 0.49217,1.916714 c -3.35538,0.655382 -5.83221,1.15704 -7.43049,1.504975 -1.55063,0.337497 -3.9761,0.902932 -7.2764,1.696307 l -0.56374,-1.901136 4.62189,-2.355288 c 0.57867,-0.325877 0.82024,-0.765737 0.72469,-1.319582 -0.62736,-3.111613 -1.21365,-5.919819 -1.75885,-8.424625 l -0.70101,-3.220486 -13.02508,2.835198 c -2.64796,0.576372 -5.25494,1.168825 -7.82094,1.777359 l 3.73873,17.175926 10.03918,2.38714 0.63677,1.547931 -12.6239,1.923344 -0.30501,-0.195959 c -1.27334,-6.194172 -2.4786,-11.903409 -3.61579,-17.127727 l -1.85378,-8.516396 c -0.62832,-2.88652 -1.30799,-5.836804 -2.03903,-8.850862 l 1.50752,-0.47806 2.28203,4.113138 c 0.2968,0.56003 0.73666,0.801592 1.31958,0.724687 0.9594,-0.183859 2.03083,-0.39834 3.21428,-0.643442 1.18343,-0.245116 2.49081,-0.523451 3.92215,-0.835004 l 29.02016,-6.316884 c 1.21658,-0.264826 2.31264,-0.509653 3.28816,-0.73448 0.97543,-0.224827 1.85418,-0.434847 2.63627,-0.630061 0.615,-0.158864 0.95823,-0.533404 1.02969,-1.123623 l 0.42971,-4.740885 1.5231,-0.406494 c 0.57438,3.098129 1.17056,6.066587 1.78854,8.905385 z" />
      </g>
      <g
         style="font-size:34.40233231px;font-style:normal;font-variant:normal;font-weight:normal;font-stretch:normal;line-height:125%;letter-spacing:0px;word-spacing:0px;fill:#000000;fill-opacity:1;stroke:none;font-family:Constantia;-inkscape-font-specification:Constantia"
         id="text3978">
        <text
           sodipodi:linespacing="125%"
           id="text3109"
           y="8.0689745"
           x="489.70367"
           style="font-size:37.63352966px;font-style:normal;font-variant:normal;font-weight:normal;font-stretch:normal;line-height:125%;letter-spacing:0px;word-spacing:0px;fill:#000000;fill-opacity:1;stroke:none;font-family:Constantia;-inkscape-font-specification:Constantia"
           xml:space="preserve"><tspan
             y="8.0689745"
             x="489.70367"
             id="tspan3111"
             sodipodi:role="line">CB1 ~ CB2</tspan></text>
      </g>
      <g
         style="font-size:59.55453873px;font-style:normal;font-weight:normal;line-height:125%;letter-spacing:6.41215897px;word-spacing:0px;fill:#000000;fill-opacity:1;stroke:none;font-family:Sans"
         id="text3982">
        <path
           inkscape:connector-curvature="0"
           style="font-variant:normal;font-stretch:normal;text-align:center;text-anchor:middle;fill:#000000;fill-opacity:1;font-family:Script MT Bold;-inkscape-font-specification:Script MT Bold"
           id="path3098"
           d="m 480.55004,85.691798 c -3e-5,0.756099 -1.25044,2.617176 -3.75124,5.583238 l -0.52343,0 c -0.38775,-0.155059 -0.63007,-0.726953 -0.72698,-1.715682 -0.21327,-1.996749 -0.90148,-3.630039 -2.06463,-4.899873 -1.1632,-1.269761 -2.55901,-1.90466 -4.18743,-1.904699 -1.53153,3.9e-5 -2.8498,0.557393 -3.9548,1.672064 -1.10503,1.114745 -1.65753,2.447548 -1.65752,3.998412 -10e-6,1.124435 0.34894,2.331227 1.04686,3.620381 0.69789,1.289214 2.51534,3.329614 5.45238,6.121206 2.93699,2.791645 4.8223,5.016205 5.65593,6.673715 0.83359,1.65754 1.25039,3.23267 1.25042,4.7254 -3e-5,3.45076 -1.49762,6.48955 -4.49276,9.11638 -2.9952,2.62683 -6.49926,3.94025 -10.5122,3.94025 -3.31505,0 -6.04851,-0.7706 -8.20038,-2.31181 -2.15187,-1.5412 -3.22781,-2.79646 -3.22781,-3.76578 0,-0.54281 0.59128,-1.80291 1.77385,-3.78031 1.18255,-1.97739 1.86107,-2.96609 2.03555,-2.9661 0.62036,10e-6 1.06139,0.17934 1.32311,0.53797 0.26171,0.35866 0.44103,1.02263 0.53797,1.99194 0.29079,3.02426 1.02262,5.10828 2.19549,6.25206 1.17286,1.14379 2.69953,1.71568 4.58,1.71568 2.05493,0 3.84815,-0.71244 5.37968,-2.13733 1.5315,-1.42489 2.29725,-3.07756 2.29727,-4.95803 -2e-5,-0.96931 -0.29566,-2.00162 -0.88692,-3.09696 -0.5913,-1.09531 -2.2682,-2.95638 -5.03073,-5.58323 -2.76255,-2.62682 -4.57031,-4.851388 -5.4233,-6.673718 -0.853,-1.822281 -1.2795,-3.59612 -1.27949,-5.321523 -10e-6,-3.004836 1.13409,-5.767372 3.40229,-8.287619 2.26817,-2.520172 5.28273,-3.780276 9.04368,-3.780318 2.84975,4.2e-5 5.21972,0.654327 7.1099,1.962858 1.89013,1.308609 2.83521,2.399084 2.83524,3.271428 z" />
        <path
           inkscape:connector-curvature="0"
           style="font-variant:normal;font-stretch:normal;text-align:center;text-anchor:middle;fill:#000000;fill-opacity:1;font-family:Script MT Bold;-inkscape-font-specification:Script MT Bold"
           id="path3100"
           d="m 511.82506,115.46907 c -2.46208,2.42328 -4.67211,4.21166 -6.6301,5.36514 -1.95802,1.15348 -4.11959,1.73022 -6.4847,1.73022 -2.63653,0 -4.76417,-0.8433 -6.38292,-2.5299 -1.61875,-1.6866 -2.42812,-3.90632 -2.42812,-6.65918 0,-4.10987 1.42488,-7.82718 4.27466,-11.15193 2.84977,-3.324721 6.00973,-4.98709 9.47988,-4.987114 1.8029,2.4e-5 3.24717,0.465294 4.33282,1.395809 1.08561,0.930562 1.62842,2.151895 1.62845,3.664005 -3e-5,4.01296 -4.26499,7.26985 -12.79493,9.77066 0.77545,3.78033 2.80131,5.67048 6.07759,5.67048 1.27948,0 2.50081,-0.3441 3.664,-1.03232 1.16316,-0.68821 2.91761,-2.21487 5.26337,-4.58 z m -15.23759,-5.37969 c 4.96287,-1.39579 7.4443,-3.97416 7.44432,-7.73511 -2e-5,-1.86105 -0.67854,-2.791593 -2.03556,-2.791615 -1.2795,2.2e-5 -2.50083,0.974185 -3.664,2.922475 -1.16318,1.94834 -1.74477,4.48308 -1.74476,7.60425 z" />
        <path
           inkscape:connector-curvature="0"
           style="font-variant:normal;font-stretch:normal;text-align:center;text-anchor:middle;fill:#000000;fill-opacity:1;font-family:Script MT Bold;-inkscape-font-specification:Script MT Bold"
           id="path3102"
           d="m 539.98858,115.46907 c -4.86596,4.76901 -8.6172,7.15352 -11.25371,7.15352 -1.18257,0 -2.18096,-0.49919 -2.99518,-1.49759 -0.81423,-0.99839 -1.22134,-2.23426 -1.22133,-3.70762 -10e-6,-2.73345 1.46365,-6.39744 4.39098,-10.99199 -1.43459,0.73669 -3.00487,1.25042 -4.71085,1.5412 -1.26011,2.32636 -3.23751,4.82718 -5.93219,7.50248 l -0.66883,0 0,-2.61715 c 1.51213,-1.57027 2.87885,-3.25687 4.10019,-5.0598 -1.66722,-0.73667 -2.50083,-1.83199 -2.50082,-3.28597 -10e-6,-1.49272 0.50888,-3.08724 1.52666,-4.783559 1.01778,-1.696272 2.41843,-2.544419 4.20197,-2.544444 1.51212,2.5e-5 2.26818,0.775474 2.26819,2.326349 -10e-6,1.221354 -0.4362,2.966114 -1.30857,5.234284 3.2181,-0.34893 6.02911,-2.81098 8.43302,-7.386157 l 2.64622,-0.116317 -2.70438,7.444314 c -1.12442,3.14059 -1.8514,5.27792 -2.18096,6.412 -0.32958,1.13411 -0.49436,2.13735 -0.49434,3.00972 -2e-5,0.81423 0.189,1.46366 0.56704,1.94831 0.37802,0.48467 0.88691,0.72699 1.52667,0.72699 0.69789,0 1.36671,-0.23748 2.00648,-0.71245 0.63972,-0.47495 2.0743,-1.78837 4.30374,-3.94025 z" />
        <path
           inkscape:connector-curvature="0"
           style="font-variant:normal;font-stretch:normal;text-align:center;text-anchor:middle;fill:#000000;fill-opacity:1;font-family:Script MT Bold;-inkscape-font-specification:Script MT Bold"
           id="path3104"
           d="m 572.51401,115.46907 c -0.8918,0.77545 -1.79326,1.32796 -2.70438,1.65752 -0.91118,0.32957 -1.61878,0.49435 -2.1228,0.49435 -1.41521,0 -2.81102,-0.54281 -4.18743,-1.62844 -3.45076,4.38129 -7.10506,6.57193 -10.96292,6.57193 -2.01617,0 -3.5913,-0.69306 -4.72539,-2.07917 -1.1341,-1.38612 -1.70115,-3.31989 -1.70115,-5.80134 0,-2.73345 0.67852,-6.08726 2.03556,-10.06146 l 2.03555,-5.961265 7.90959,-1.483048 -3.5186,10.497653 c -0.36835,1.1438 -0.7173,2.50083 -1.04686,4.07111 -0.32957,1.57029 -0.49435,2.69469 -0.49435,3.37321 0,1.04686 0.27625,1.92408 0.82876,2.63168 0.5525,0.7076 1.22618,1.0614 2.02102,1.06139 1.86107,10e-6 3.86754,-1.58966 6.01943,-4.76901 -0.98871,-1.97739 -1.48306,-3.96448 -1.48305,-5.96127 -1e-5,-2.77222 0.73182,-5.27304 2.19549,-7.50248 1.46365,-2.229392 3.06786,-3.3441 4.81264,-3.344124 1.31824,2.4e-5 1.97737,1.017801 1.97739,3.053334 -2e-5,3.93542 -1.58969,8.48149 -4.76901,13.63822 0.98868,0.91116 2.02584,1.36674 3.11149,1.36673 1.31824,1e-5 2.90791,-1.05654 4.76902,-3.16965 z" />
        <path
           inkscape:connector-curvature="0"
           style="font-variant:normal;font-stretch:normal;text-align:center;text-anchor:middle;fill:#000000;fill-opacity:1;font-family:Script MT Bold;-inkscape-font-specification:Script MT Bold"
           id="path3106"
           d="m 592.59347,85.866274 c -2e-5,4.65273 -1.7157,6.979077 -5.14705,6.979048 -1.66722,2.9e-5 -3.09211,-0.504013 -4.27467,-1.512127 1.1244,-1.705957 1.99678,-3.625193 2.61715,-5.757714 1.5315,0.949961 2.76253,1.424923 3.69308,1.424888 1.04684,3.5e-5 2.084,-0.377996 3.11149,-1.134095 z m 0.58158,29.602796 c -4.53639,4.76901 -7.92898,7.15352 -10.17777,7.15352 -1.24073,0 -2.28758,-0.6349 -3.14057,-1.9047 -0.853,-1.26979 -1.2795,-2.86431 -1.2795,-4.78355 0,-4.12926 1.39581,-9.8482 4.18743,-17.156828 l 7.38616,-1.541206 0.34895,0 -2.90793,9.101844 c -1.20196,3.76094 -1.80293,6.44593 -1.80292,8.05498 -10e-6,0.63975 0.14054,1.15834 0.42165,1.55575 0.28109,0.39742 0.63489,0.59613 1.06139,0.59612 0.75606,1e-5 1.51697,-0.27624 2.28273,-0.82876 0.76575,-0.5525 1.97254,-1.7496 3.62038,-3.5913 z" />
        <path
           inkscape:connector-curvature="0"
           style="font-variant:normal;font-stretch:normal;text-align:center;text-anchor:middle;fill:#000000;fill-opacity:1;font-family:Script MT Bold;-inkscape-font-specification:Script MT Bold"
           id="path3108"
           d="m 621.33858,115.46907 c -2.48146,2.44267 -4.75449,4.23589 -6.81911,5.37968 -2.06465,1.14379 -4.22137,1.71568 -6.47016,1.71568 -2.52022,0 -4.59939,-0.81907 -6.23752,-2.4572 -1.63814,-1.63814 -2.45721,-3.71731 -2.45721,-6.23753 0,-4.12926 1.50728,-7.94349 4.52184,-11.44273 3.01455,-3.499192 6.27629,-5.248798 9.78521,-5.248823 1.72536,2.5e-5 3.13086,0.479834 4.21651,1.439429 1.08561,0.959641 1.62842,2.205204 1.62844,3.736694 -2e-5,0.54284 -0.1018,0.94995 -0.30533,1.22134 -0.20358,0.27142 -0.58646,0.54283 -1.14864,0.81422 l -3.3732,1.59936 c -0.40713,0.19388 -0.70762,0.29081 -0.90146,0.2908 -0.27143,1e-5 -0.40713,-0.19385 -0.40712,-0.58159 -10e-6,-0.15507 0.0582,-0.66396 0.17448,-1.52667 0.1163,-0.86266 0.17446,-1.39094 0.17448,-1.58482 -2e-5,-0.85298 -0.17934,-1.54119 -0.53797,-2.06464 -0.35866,-0.523403 -0.83847,-0.785117 -1.43943,-0.785139 -1.41521,2.2e-5 -2.70924,1.046879 -3.8821,3.140569 -1.17287,2.09373 -1.7593,4.47824 -1.7593,7.15353 0,2.30697 0.5525,4.14866 1.65753,5.52508 1.105,1.37642 2.57836,2.06463 4.42006,2.06463 1.57027,0 3.04847,-0.45073 4.4346,-1.35219 1.3861,-0.90145 2.96123,-2.28272 4.7254,-4.14381 z" />
        <path
           inkscape:connector-curvature="0"
           style="font-variant:normal;font-stretch:normal;text-align:center;text-anchor:middle;fill:#000000;fill-opacity:1;font-family:Script MT Bold;-inkscape-font-specification:Script MT Bold"
           id="path3110"
           d="m 649.50211,115.46907 c -2.46207,2.42328 -4.6721,4.21166 -6.6301,5.36514 -1.95802,1.15348 -4.11959,1.73022 -6.4847,1.73022 -2.63653,0 -4.76417,-0.8433 -6.38292,-2.5299 -1.61875,-1.6866 -2.42812,-3.90632 -2.42812,-6.65918 0,-4.10987 1.42488,-7.82718 4.27466,-11.15193 2.84977,-3.324721 6.00973,-4.98709 9.47988,-4.987114 1.8029,2.4e-5 3.24718,0.465294 4.33282,1.395809 1.08561,0.930562 1.62843,2.151895 1.62845,3.664005 -2e-5,4.01296 -4.26499,7.26985 -12.79492,9.77066 0.77544,3.78033 2.8013,5.67048 6.07758,5.67048 1.27948,0 2.50081,-0.3441 3.664,-1.03232 1.16316,-0.68821 2.91761,-2.21487 5.26337,-4.58 z m -15.23759,-5.37969 c 4.96287,-1.39579 7.4443,-3.97416 7.44432,-7.73511 -2e-5,-1.86105 -0.67853,-2.791593 -2.03556,-2.791615 -1.2795,2.2e-5 -2.50083,0.974185 -3.664,2.922475 -1.16318,1.94834 -1.74477,4.48308 -1.74476,7.60425 z" />
        <path
           inkscape:connector-curvature="0"
           style="font-variant:normal;font-stretch:normal;text-align:center;text-anchor:middle;fill:#000000;fill-opacity:1;font-family:Script MT Bold;-inkscape-font-specification:Script MT Bold"
           id="path3112"
           d="m 686.97103,115.46907 c -2.79164,2.77223 -4.91928,4.64785 -6.38292,5.62685 -1.46368,0.97901 -2.75771,1.46851 -3.88209,1.46851 -1.37645,0 -2.46692,-0.66882 -3.27143,-2.00647 -0.80455,-1.33765 -1.2165,-3.29566 -1.23587,-5.87404 -1.58969,2.57838 -3.31991,4.53639 -5.19067,5.87404 -1.87078,1.33765 -3.56223,2.00647 -5.07435,2.00647 -1.64784,0 -3.1018,-0.78029 -4.3619,-2.34089 -1.26011,-1.56059 -1.89016,-3.38774 -1.89016,-5.48146 0,-4.32312 1.57513,-8.33122 4.72539,-12.02431 3.15026,-3.69306 6.538,-5.539598 10.16324,-5.539623 1.00807,2.5e-5 1.79806,0.145421 2.36997,0.436191 0.57188,0.290817 1.19708,0.785166 1.87562,1.483047 l 4.15835,-17.38946 c 3.39256,-0.794795 5.68014,-1.192212 6.86273,-1.192254 0.38769,4.2e-5 0.58155,0.155131 0.58159,0.46527 -4e-5,0.213289 -0.48469,2.219764 -1.45397,6.019428 -3.87728,15.198831 -5.8159,24.368521 -5.81588,27.509081 -2e-5,0.73668 0.15507,1.32796 0.46527,1.77384 0.31016,0.44589 0.71727,0.66883 1.22134,0.66883 1.24069,0 3.28594,-1.60906 6.13574,-4.82718 z m -21.02438,1.5412 c 1.89984,10e-6 3.67368,-1.60905 5.32153,-4.82717 1.64781,-3.2181 2.47172,-6.23266 2.47174,-9.04368 -2e-5,-1.14377 -0.25688,-2.05492 -0.7706,-2.73346 -0.51375,-0.6785 -1.18742,-1.017759 -2.02102,-1.017781 -1.80293,2.2e-5 -3.54769,1.681781 -5.23428,5.045271 -1.68661,3.36353 -2.52991,6.40232 -2.52991,9.11638 0,1.06625 0.24717,1.90955 0.74153,2.5299 0.49434,0.62037 1.16801,0.93055 2.02101,0.93054 z" />
      </g>
      <path
         inkscape:connector-curvature="0"
         style="fill:none;stroke:#000000;stroke-width:3.84729576;stroke-linecap:butt;stroke-linejoin:miter;stroke-miterlimit:4;stroke-opacity:1;stroke-dasharray:none"
         id="path3988"
         d="m 441.41656,67.64299 256.4864,0" />
      <path
         inkscape:connector-curvature="0"
         style="fill:none;stroke:#000000;stroke-width:3.84729576;stroke-linecap:butt;stroke-linejoin:miter;stroke-miterlimit:4;stroke-opacity:1;stroke-dasharray:none"
         id="path3990"
         d="m 441.41656,134.32945 256.4864,0" />
      <path
         inkscape:connector-curvature="0"
         style="fill:none;stroke:#ffffff;stroke-width:2.6644268;stroke-linecap:butt;stroke-linejoin:miter;stroke-miterlimit:4;stroke-opacity:1;filter:url(#filter4050)"
         id="path4125"
         d="m 719.72028,210.77888 c 23.26649,-26.61416 39.94339,-59.58233 46.52972,-96.93513 2.66595,-15.119384 3.5555,-30.14288 2.83359,-44.856215" />
      <path
         inkscape:connector-curvature="0"
         style="fill:none;stroke:#ffffff;stroke-width:2.6644268;stroke-linecap:butt;stroke-linejoin:miter;stroke-miterlimit:4;stroke-opacity:1;filter:url(#filter4050)"
         id="path3998"
         d="M 368.06788,69.008162 C 365.30556,123.21171 384.82437,174.52767 419.3125,213 l 0.34375,0" />
      <path
         inkscape:connector-curvature="0"
         style="fill:none;stroke:#000000;stroke-width:3.15302992;stroke-linecap:butt;stroke-linejoin:miter;stroke-miterlimit:4;stroke-opacity:1"
         id="path4127"
         d="m 407.0061,260.24388 c 95.94132,89.46675 246.24434,84.21805 335.71109,-11.7233 89.46673,-95.94128 84.21805,-246.2443139 -11.7233,-335.71106 -95.94131,-89.46677 -246.24433,-84.21804 -335.71109,11.723289 -89.46673,95.9413 -84.21804,246.244341 11.7233,335.711071 z" />
    </g>
  </g>
</svg>
