<svg width="270" height="270" xmlns="http://www.w3.org/2000/svg" class="undefined"><style>.a{fill:none;}.b{fill:#fff;stroke-width:3;}.c{fill:none;stroke-width:3;}.d{-inkscape-font-specification:Constantia;fill:#fff;font-family:Constantia;font-size:80px;letter-spacing:20px;line-height:100%;word-spacing:0px;}.e{-inkscape-font-specification:Constantia;font-family:Constantia;font-size:80px;letter-spacing:20px;}.f{-inkscape-font-specification:Constantia;fill:#fff;font-family:Constantia;font-size:80px;letter-spacing:10px;line-height:100%;word-spacing:0px;}.g{-inkscape-font-specification:Constantia;font-family:Constantia;font-size:80px;}.h{-inkscape-font-specification:Constantia;fill:#fff;font-family:Constantia;font-size:30px;letter-spacing:0px;line-height:100%;word-spacing:0px;}.i{-inkscape-font-specification:Constantia;fill:#fff;font-family:Constantia;font-size:40px;letter-spacing:0px;line-height:100%;word-spacing:0px;}.j{fill:#fff;font-family:Sans;font-size:60px;letter-spacing:6px;line-height:100%;word-spacing:0px;}.k{-inkscape-font-specification:Script MT Bold;font-family:Script MT Bold;text-align:center;text-anchor:middle;}.l{fill:none;stroke-width:4;stroke:#fff;}.m{fill:none;filter:url(#filter4050);stroke-width:3;stroke:#fff;}.n{fill:none;stroke-width:3;stroke:#fff;}</style><defs class="undefined"><path d="M193.9 608.2C287.7 708.8 445.2 714.3 545.8 620.5 646.4 526.7 651.9 369.1 558.1 268.6 464.3 168 306.8 162.5 206.2 256.3 105.6 350.1 100.1 507.6 193.9 608.2Z" class="a"/><path d="m501.7 573.1c-74.4 69.4-191 65.3-260.4-9.1 -57.3-61.5-64.5-151.7-23.3-220.4 8.7-14.5 19.5-28 32.4-40 74.4-69.4 191-65.3 260.4 9.1 69.4 74.4 65.3 191-9.1 260.4Z" class="a"/><filter color-interpolation-filters="sRGB" width="1" height="1" class="undefined"><feColorMatrix result="result14" in="SourceGraphic" type="luminanceToAlpha" class="undefined"/><feComposite result="fbSourceGraphic" in="SourceGraphic" in2="result14" operator="out" class="undefined"/><feBlend result="result15" in2="fbSourceGraphic" mode="normal" class="undefined"/></filter></defs><path d="M193.6 190.8C287.3 291.4 444.9 296.9 545.5 203.1 646.1 109.3 651.6-48.2 557.8-148.8 464-249.4 306.4-254.9 205.8-161.1 105.3-67.3 99.8 90.2 193.6 190.8Z" class="a"/><path d="m501.3 155.7c-74.4 69.4-191 65.3-260.4-9.1 -57.3-61.5-64.5-151.7-23.3-220.4 8.7-14.5 19.5-28 32.4-40 74.4-69.4 191-65.3 260.4 9.1 69.4 74.4 65.3 191-9.1 260.4Z" class="a"/><path transform="translate(-0.340237 -417.376)" d="m220 458.9a19 34.5 0 0 1-0.3 6" class="b"/><path transform="translate(-0.340237 -417.376)" d="m263 521.4a24 24 0 0 1-0.4 4.2" class="b"/><path d="m414.9 244.3c91.3 85.1 234.3 80.1 319.4-11.2C819.4 141.8 814.4-1.2 723.1-86.3 631.8-171.4 488.8-166.4 403.7-75.1 318.6 16.2 323.6 159.2 414.9 244.3Z" class="a"/><path d="M396.6 48.7C413.3-46.3 503.9-109.7 598.9-93 693.9-76.2 757.3 14.3 740.5 109.3 723.8 204.3 633.2 267.7 538.2 251 443.3 234.2 379.9 143.7 396.6 48.7Z" class="a"/><rect x="-130.3" y="35" width="410" height="40" class="c"/><g transform="matrix(0.531441 0 0 0.531441 -168.39 93.0162)" class="undefined"><g class="d"><path d="m426.6 240c-0.9 1.1-1.8 2.1-2.5 3.1 -0.7 0.9-1.4 1.7-2 2.5 -0.5 0.6-0.5 1.2-0.2 1.7l2.4 3.5 -0.9 1.3c-2.2-1.9-4.4-3.8-6.6-5.6 -2.3-1.9-4.6-3.8-7.1-5.7l0.9-1.3 4.3 1.8c0.6 0.3 1.1 0.2 1.5-0.2 0.6-0.7 1.4-1.6 2.1-2.5 0.8-0.9 1.6-1.9 2.6-3.1l18.9-22.9c0.8-1 1.5-1.8 2.1-2.6 0.6-0.8 1.2-1.5 1.7-2.1 0.4-0.5 0.4-1 0.1-1.5l-2.6-4 0.9-1.3c2.4 2.1 4.7 4.1 7 6 0.5 0.4 1 0.8 1.8 1.4 0.7 0.5 1.6 1.2 2.6 2 1 0.8 1.9 1.5 2.6 2 0.7 0.5 1.2 1 1.6 1.3 4.3 3.5 6.8 7 7.6 10.4 0.8 3.4-0.1 6.6-2.6 9.7 -2.3 2.8-4.9 4.5-7.8 5 -2.9 0.5-6.3 0-10-1.5 -0.3 2.8-0.7 5.4-1.1 7.9 -0.4 2.5-0.7 4.8-1 6.9 -0.3 2.1-0.5 4-0.7 5.7 -0.2 1.7-0.2 3.1-0.1 4.2 0.1 0.6 0.1 1.1 0.3 1.6 0.1 0.5 0.3 1 0.5 1.4 0.2 0.4 0.5 0.9 0.8 1.3 0.3 0.4 0.6 0.9 1 1.4l-0.9 1.3c-1.5-1-2.7-1.8-3.6-2.6 -0.8-0.6-1.4-1.2-2-1.7 -0.6-0.5-1-1-1.4-1.5 -0.4-0.5-0.6-1-0.9-1.5 -0.2-0.5-0.4-1-0.5-1.6 -0.3-1.2-0.4-2.7-0.2-4.4 0.2-1.7 0.4-3.6 0.8-5.7 0.4-2.1 0.7-4.2 1.2-6.5 0.4-2.3 0.8-4.6 1.1-6.9 0.1-0.7 0.1-1.2 0.2-1.7 0-0.4 0-0.8-0.1-1.2 -0.1-0.3-0.3-0.7-0.6-1 -0.3-0.3-0.6-0.7-1.1-1.1l-1.9-1.7Zm9.8-11.9c1.1 1 2.1 1.9 3.1 2.7 3.3 2.7 6.2 4 8.9 3.8 2.7-0.1 5.2-1.7 7.7-4.6 2.4-2.9 3.4-5.5 3-8.1 -0.4-2.5-2.1-5-5.2-7.6 -0.5-0.4-1.1-0.9-1.7-1.3 -0.6-0.5-1.3-0.9-2.1-1.4Z" class="e"/><path d="m480.7 259.2c-2.8 7.4-3.5 13.7-2 18.8 1.5 5.1 5.2 8.8 11 11 5.7 2.2 10.6 2 14.7-0.6 4.1-2.6 7.6-7.7 10.5-15.4 2.7-7.2 3.4-13.3 2-18.3 -1.4-5-5.2-8.6-11.2-10.9 -5.9-2.2-10.8-2.1-14.8 0.5 -4 2.6-7.4 7.5-10.2 14.8Zm42.2 15.5c-3 7.9-7.7 13.4-14 16.5 -6.3 3.1-13.5 3.1-21.5 0.1 -7.6-2.9-12.7-7.4-15.2-13.4 -2.5-6-2.3-12.8 0.6-20.4 3-7.9 7.6-13.3 13.9-16.2 6.3-2.9 13.4-2.8 21.4 0.2 7.7 2.9 12.8 7.3 15.3 13.2 2.6 5.9 2.4 12.6-0.4 20Z" class="e"/><path d="m548.9 278.6c-0.1 8 1.5 14.1 4.7 18.3 3.2 4.3 7.9 6.4 14.1 6.5 6.1 0 10.7-1.8 13.6-5.7 2.9-3.8 4.5-9.8 4.5-18.1 0.1-7.7-1.4-13.7-4.5-17.8 -3.1-4.2-7.8-6.3-14.3-6.3 -6.3 0-10.8 1.8-13.7 5.7 -2.9 3.8-4.3 9.6-4.4 17.5Zm45-0.1c-0.1 8.4-2.5 15.2-7.4 20.3 -4.8 5.1-11.6 7.6-20.2 7.6 -8.2-0.1-14.5-2.5-18.9-7.3 -4.4-4.8-6.6-11.2-6.6-19.3 0.1-8.4 2.5-15.1 7.4-20 4.9-4.9 11.6-7.3 20.1-7.2 8.2 0.1 14.5 2.4 19 7 4.4 4.6 6.6 10.9 6.6 18.9Z" class="e"/><path d="m646.9 236.4c2.2-0.7 4.1-1.4 5.9-2.1 1.7-0.6 3.9-1.6 6.8-2.7l0.7 1.4 -3.8 3c-0.5 0.4-0.6 0.9-0.4 1.5 0.5 1.5 1.2 3.4 2.1 5.7l10.6 27.8c1 2.7 1.9 5 2.7 6.8 0.2 0.5 0.7 0.7 1.4 0.7l4.6-0.3 0.6 1.4c-3 1.1-5.9 2.1-8.7 3.2 -2.7 1-5.3 2.1-7.9 3.1l-0.7-1.4 3.5-2.7c0.5-0.4 0.6-0.9 0.4-1.5 -0.6-1.8-1.5-4.1-2.5-6.8l-11.3-29.6 -1.7 46.6 -2.4 1.2 -32.5-33.9 11.3 29.6c1 2.7 1.9 4.9 2.6 6.7 0.3 0.6 0.7 0.9 1.3 0.9l4.3-0.3 0.6 1.4c-2.7 1-5 1.8-6.8 2.5 -1.8 0.7-4.1 1.6-7 2.8l-0.7-1.4 3.7-2.9c0.5-0.4 0.7-0.9 0.5-1.4 -0.7-1.9-1.5-4.1-2.5-6.8l-10.6-27.8c-0.9-2.3-1.6-4.2-2.2-5.7 -0.2-0.6-0.7-0.9-1.3-0.9l-4.8 0.3 -0.6-1.4c3-1 5.3-1.9 7-2.5 2-0.7 4-1.6 6.1-2.5l30.2 31.5Z" class="e"/><path d="m688.7 211.1c-2.5 1-4.6 2.1-6.3 3.5 -2.5 2-4 4.3-4.5 6.7 -0.5 2.4 0.2 4.7 1.9 6.9 1 1.2 2.2 2.1 3.4 2.6 1.3 0.5 2.6 0.7 4.1 0.7 1.5 0 3-0.2 4.5-0.6 1.6-0.4 3.2-0.8 4.8-1.2 1.8-0.5 3.5-0.9 5.3-1.3 1.7-0.4 3.5-0.5 5.1-0.5 1.7 0 3.3 0.4 4.9 1.1 1.6 0.7 3 1.8 4.3 3.4 3.1 3.8 4.1 7.7 3.1 11.8 -1 4.1-3.8 8.1-8.5 12 -3 2.5-6.7 4.7-11.2 6.7l-0.4-0.1 -6.5-10.8 1.1-1.2 8.6 6.4c2.6-0.9 5-2.1 7.1-3.9 2.8-2.3 4.5-4.7 5-7.3 0.5-2.5-0.1-5-2-7.3 -1-1.2-2.1-2.1-3.4-2.6 -1.3-0.5-2.6-0.7-4-0.7 -1.4 0-2.9 0.3-4.4 0.6 -1.5 0.4-3.1 0.8-4.7 1.2 -1.8 0.5-3.6 1-5.4 1.3 -1.8 0.4-3.5 0.5-5.3 0.5 -1.7 0-3.4-0.5-5.1-1.2 -1.7-0.8-3.2-2-4.6-3.7 -2.8-3.4-3.7-7.1-2.7-11.1 1-4 3.6-7.7 7.9-11.2 3-2.5 6.4-4.7 10.2-6.7l0.4 0 5.6 10.2 -1 1.1Z" class="e"/></g><g class="f"><path d="m365.2 12.5l-0.1 1.5 -10 0.4c-1.4 2.8-2.4 5.4-3 7.8 -1.4 5.8-0.4 10.9 2.9 15.1 3.3 4.3 8.2 7.2 14.7 8.7 6.9 1.6 12.9 1 17.9-1.9 5-2.8 8.3-7.6 9.9-14.4 0.9-3.8 1.1-7.9 0.6-12.5l1.7 0c2.1 5.4 2.5 11.1 1.2 17 -1.8 7.7-5.6 13.3-11.3 17 -5.8 3.6-12.5 4.5-20.2 2.8 -8.2-1.9-14-6-17.6-12.3 -3.6-6.3-4.4-13.6-2.4-22 0.9-4 2.4-8 4.3-12l0.3-0.2Z" class="g"/><path d="m379.1-45.5l46.5 10.5c1.7 0.4 3 0.5 3.8 0.4 0.8-0.1 1.5-0.5 2.3-1.1l2.7-2.3 1.4 0.8c-1.8 2.7-3.4 5.1-4.9 7.4 -1.5 2.3-3.2 5.1-5.2 8.3l-1.4-0.7 1-3.5c0.1-0.5 0.1-0.9 0.1-1.2 -0.1-0.3-0.3-0.5-0.6-0.8 -0.4-0.3-1-0.5-1.8-0.7 -0.8-0.2-1.9-0.5-3.2-0.8l-10.1-2.4 -9.5 14.9 6.1 8.5c0.9 1.2 1.6 2.1 2.1 2.8 0.5 0.7 1 1.1 1.4 1.4 0.3 0.2 0.7 0.3 1 0.2 0.3-0.1 0.6-0.3 1-0.6l2.7-2.3 1.4 0.8c-1.9 2.9-3.5 5.2-4.7 7.1 -1.2 1.8-2.5 3.9-3.9 6.3L406 6.9 407 3.1c0.3-0.9 0.2-1.8 0-2.5 -0.3-0.7-0.8-1.6-1.6-2.8L377.9-42Zm18.7 25.9l8.2-12.7 -20.8-4.9Z" class="g"/><path d="m454.1-116.4c1.9-1.2 3.7-2.4 5.2-3.4 1.5-1 3.5-2.4 5.9-4.3l1 1.2 -3 3.8c-0.4 0.5-0.4 1 0 1.5 0.9 1.4 2 3 3.4 5l16.9 24.5c1.6 2.4 3 4.4 4.2 6 0.3 0.4 0.8 0.6 1.5 0.4l4.4-1.4 1 1.3c-2.7 1.8-5.2 3.5-7.7 5.1 -2.4 1.6-4.7 3.3-7 4.9l-1-1.2 2.7-3.4c0.4-0.5 0.4-1 0-1.6 -1.1-1.6-2.4-3.6-4-6l-18-26.1 9.4 45.7 -2 1.8 -39.6-25.2 18 26.1c1.6 2.4 3 4.3 4.2 5.9 0.4 0.5 0.9 0.7 1.5 0.5l4.1-1.3 1 1.3c-2.4 1.6-4.5 2.9-6.1 4 -1.6 1.1-3.6 2.5-6.2 4.4l-1-1.2 2.9-3.7c0.4-0.5 0.5-1 0.2-1.5 -1.1-1.7-2.4-3.7-4.1-6l-16.9-24.5c-1.4-2-2.6-3.7-3.5-5 -0.4-0.5-0.9-0.7-1.4-0.5l-4.5 1.4 -1-1.3c2.6-1.7 4.7-3.1 6.2-4.1 1.7-1.2 3.5-2.5 5.3-3.8l36.8 23.4Z" class="g"/><path d="m500.2-137.1c3.1-0.6 6.1-1.2 9-1.9 1.1-0.3 2.8-0.8 5.3-1.4 2.4-0.7 4.1-1.1 4.9-1.3 5.1-1.2 9.2-1.1 12.3 0.3 3.1 1.3 5 3.8 5.9 7.5 1.3 5.9-0.9 10.6-6.7 14.1 3.8-0.2 7 0.5 9.6 2.1 2.6 1.6 4.3 4.1 5 7.4 1.1 4.8 0.2 8.8-2.7 12.2 -2.9 3.4-7.3 5.8-13.5 7.2 -1.2 0.3-2.5 0.5-4 0.8 -1.4 0.3-3 0.6-4.8 1 -2.9 0.7-5.8 1.4-8.8 2.1l-0.5-1.5 4.1-2.3c0.6-0.3 0.8-0.7 0.7-1.3 -0.2-1-0.4-2-0.7-3.2 -0.3-1.2-0.5-2.5-0.9-3.9l-6.6-29c-0.3-1.2-0.5-2.3-0.8-3.3 -0.2-1-0.5-1.9-0.7-2.6 -0.2-0.6-0.5-1-1.1-1l-4.7-0.4Zm18.1 22.3l4.9 21.7c0.8 0.1 1.6 0.1 2.6-0.1 1-0.1 1.8-0.3 2.6-0.5 4-0.9 6.7-2.6 8.4-5 1.6-2.4 2-5.5 1.2-9.2 -0.8-3.7-2.5-6.2-5-7.6 -2.5-1.3-6.1-1.5-10.7-0.4 -1.4 0.3-2.7 0.6-3.9 1Zm-0.6-2.9c1.5-0.3 3-0.6 4.5-1 3.5-0.8 6-2.3 7.4-4.4 1.4-2.1 1.7-4.8 1-8 -0.8-3.4-2.3-5.6-4.4-6.7 -2.2-1.1-5-1.2-8.5-0.4 -0.6 0.1-1.3 0.3-2 0.5 -0.7 0.2-1.5 0.5-2.3 0.7Z" class="g"/><path d="m579.4-106.7c-0.1 1.5-0.3 2.8-0.4 3.9 -0.1 1.2-0.2 2.2-0.3 3.2 0 0.8 0.2 1.3 0.8 1.5l3.9 1.6 0 1.6c-2.9-0.4-5.8-0.7-8.7-1 -2.9-0.3-6-0.6-9-0.8l0-1.6 4.6-0.9c0.6-0.1 1-0.5 1.1-1 0.1-1 0.2-2.1 0.4-3.3 0.1-1.2 0.3-2.5 0.4-4l2.9-29.6c0.1-1.2 0.2-2.4 0.3-3.4 0.1-1 0.2-1.9 0.2-2.7 0-0.6-0.2-1.1-0.8-1.3l-4.4-1.9 0.1-1.6c3.1 0.4 6.2 0.8 9.1 1 0.6 0.1 1.3 0.1 2.2 0.2 0.9 0.1 2 0.1 3.3 0.2 1.3 0.1 2.4 0.2 3.3 0.2 0.9 0.1 1.6 0.1 2.1 0.2 5.5 0.5 9.6 2 12.2 4.4 2.6 2.4 3.6 5.5 3.3 9.6 -0.4 3.6-1.6 6.5-3.7 8.5 -2.1 2.1-5.2 3.5-9.2 4.3 1.3 2.5 2.5 4.9 3.6 7.2 1.1 2.3 2.1 4.4 3 6.3 0.9 1.9 1.8 3.6 2.6 5.1 0.8 1.5 1.5 2.7 2.3 3.5 0.4 0.5 0.7 0.9 1.1 1.2 0.4 0.3 0.8 0.6 1.2 0.9 0.4 0.2 0.9 0.5 1.4 0.7 0.5 0.2 1 0.4 1.6 0.6l0 1.6c-1.8 0-3.3 0-4.4-0.1 -1-0.1-1.9-0.2-2.6-0.3 -0.7-0.1-1.4-0.3-2-0.5 -0.6-0.2-1.1-0.4-1.5-0.7 -0.5-0.3-0.9-0.6-1.3-1 -0.9-0.9-1.8-2-2.6-3.6 -0.8-1.5-1.7-3.2-2.5-5.1 -0.9-1.9-1.7-3.9-2.7-6.1 -0.9-2.1-1.9-4.2-2.9-6.3 -0.3-0.6-0.6-1.1-0.8-1.5 -0.2-0.4-0.5-0.7-0.8-0.9 -0.3-0.2-0.6-0.4-1-0.5 -0.4-0.1-0.9-0.2-1.5-0.3l-2.5-0.3Zm1.5-15.4c1.5 0.2 2.8 0.4 4.1 0.5 4.2 0.4 7.4-0.2 9.5-1.8 2.1-1.6 3.4-4.3 3.8-8.1 0.4-3.7-0.3-6.5-2-8.4 -1.7-1.9-4.5-3-8.5-3.4 -0.7-0.1-1.4-0.1-2.2-0.1 -0.8 0-1.6 0-2.5 0Z" class="g"/><path d="m638-93.5c-0.5 1.4-1 2.6-1.4 3.7 -0.4 1.1-0.8 2.1-1.1 3.1 -0.2 0.6 0.1 1.1 0.8 1.6l3.4 2.7 -0.5 1.5c-2.9-1.2-5.7-2.3-8.5-3.3 -2.8-1-5.6-2.1-8.5-3.1l0.4-1.5 4.7 0.3c0.6 0.1 1.1-0.2 1.3-0.7 0.4-0.9 0.8-1.9 1.2-3 0.4-1.1 0.9-2.4 1.4-3.7l10.5-27.8c0.4-1.2 0.8-2.2 1.2-3.2 0.3-0.9 0.6-1.8 0.9-2.6 0.2-0.6 0.1-1.1-0.4-1.5l-3.7-2.9 0.5-1.5c2.9 1.2 5.7 2.3 8.4 3.4 2.7 1 5.6 2.1 8.5 3.1l-0.4 1.5 -4.7-0.3c-0.6-0.1-1 0.2-1.3 0.7 -0.3 0.8-0.7 1.7-1 2.6 -0.4 0.9-0.8 2-1.2 3.1Z" class="g"/><path d="m662.8-68.9c-2.3-1.8-4.8-3.6-7.3-5.5l0.8-1.3 4.4 1.7c0.6 0.2 1.1 0.1 1.5-0.3 0.6-0.8 1.3-1.6 2-2.6 0.7-1 1.6-2 2.5-3.2l18.1-23.5c0.8-1 1.4-1.9 2-2.7 0.6-0.8 1.1-1.5 1.6-2.2 0.4-0.5 0.4-1 0.1-1.5l-2.7-3.9 0.9-1.3c2.4 2 4.8 3.9 7.2 5.7 1.9 1.5 3.8 2.9 5.7 4.2 1.9 1.3 3.8 2.7 5.7 4.1 6.8 5.2 10.7 10.7 11.7 16.4 1 5.7-0.8 11.6-5.5 17.7 -5.5 7.2-11.7 11.3-18.5 12.3 -6.8 1-13.7-1.1-20.5-6.3 -1.9-1.4-3.5-2.8-5-4 -1.4-1.2-3-2.5-4.8-3.8Zm4.8-0.4c1 1 2.1 2 3.1 2.9 1.1 0.9 2.1 1.8 3.2 2.6 5.1 3.9 10.2 5.4 15.1 4.5 5-1 9.9-4.5 14.6-10.7 4.6-6 6.8-11.5 6.5-16.3 -0.3-4.9-3.2-9.4-8.7-13.6 -0.9-0.7-1.8-1.4-2.9-2.2 -1.1-0.8-2.3-1.6-3.7-2.6Z" class="g"/><path d="m759.5-17.2l-0.9-1.1 6.9-7.1c-0.9-3-2-5.5-3.4-7.8 -3.2-5.2-7.4-8.2-12.7-9 -5.3-0.8-11.1 0.7-17.3 4.5 -6.3 3.8-10.3 8.5-12.1 13.9 -1.8 5.4-1 10.9 2.3 16.3 1.1 1.8 2.4 3.5 3.9 4.9l8.4-5.1c1-0.6 2-1.2 2.8-1.7 0.8-0.5 1.6-1 2.3-1.5 0.5-0.4 0.7-0.8 0.6-1.4l-1.1-4.6 1.3-0.9c1.6 2.7 3.1 5.3 4.6 7.8 1.5 2.5 3 4.9 4.5 7.2l-1.2 1 -3.1-2.8c-0.5-0.4-1-0.5-1.5-0.2 -0.8 0.5-1.7 1-2.6 1.5 -0.9 0.5-1.8 1.1-2.8 1.7l-10 6.1 -0.3-0.1c-3.6-3.6-6.5-7.2-8.7-10.8 -4.5-7.3-6.1-14.3-4.8-21 1.2-6.7 5.3-12.1 12.3-16.4 7.4-4.5 14.5-5.8 21.4-3.8 6.9 1.9 12.7 6.8 17.5 14.6 2 3.4 3.8 7.1 5.2 11.4l-0.1 0.3Z" class="g"/><path d="m787.3 22.2l1.9 8.7c1.2 5.3 2.4 11 3.8 16.9l-0.2 0.3 -11.5 0.3 -0.6-1.4 7.8-4 -3.6-16.5 -19.7 4.3 0.7 3.3c0.5 2.5 1.2 5.2 1.9 8.3 0.2 0.6 0.6 1 1.2 1l5.1 0.2 0.5 1.9c-3.4 0.7-5.8 1.2-7.4 1.5 -1.6 0.3-4 0.9-7.3 1.7l-0.6-1.9 4.6-2.4c0.6-0.3 0.8-0.8 0.7-1.3 -0.6-3.1-1.2-5.9-1.8-8.4l-0.7-3.2 -13 2.8c-2.6 0.6-5.3 1.2-7.8 1.8l3.7 17.2 10 2.4 0.6 1.5 -12.6 1.9 -0.3-0.2c-1.3-6.2-2.5-11.9-3.6-17.1l-1.9-8.5c-0.6-2.9-1.3-5.8-2-8.9l1.5-0.5 2.3 4.1c0.3 0.6 0.7 0.8 1.3 0.7 1-0.2 2-0.4 3.2-0.6 1.2-0.2 2.5-0.5 3.9-0.8l29-6.3c1.2-0.3 2.3-0.5 3.3-0.7 1-0.2 1.9-0.4 2.6-0.6 0.6-0.2 1-0.5 1-1.1l0.4-4.7 1.5-0.4c0.6 3.1 1.2 6.1 1.8 8.9Z" class="g"/></g><g class="h"><text x="489.7" y="8.1" class="i"><tspan x="489.7" y="8.1" class="undefined">  CB1 ~ CB2</tspan></text></g><g class="j"><path d="m480.6 85.7c0 0.8-1.3 2.6-3.8 5.6l-0.5 0c-0.4-0.2-0.6-0.7-0.7-1.7 -0.2-2-0.9-3.6-2.1-4.9 -1.2-1.3-2.6-1.9-4.2-1.9 -1.5 0-2.8 0.6-4 1.7 -1.1 1.1-1.7 2.4-1.7 4 0 1.1 0.3 2.3 1 3.6 0.7 1.3 2.5 3.3 5.5 6.1 2.9 2.8 4.8 5 5.7 6.7 0.8 1.7 1.3 3.2 1.3 4.7 0 3.5-1.5 6.5-4.5 9.1 -3 2.6-6.5 3.9-10.5 3.9 -3.3 0-6-0.8-8.2-2.3 -2.2-1.5-3.2-2.8-3.2-3.8 0-0.5 0.6-1.8 1.8-3.8 1.2-2 1.9-3 2-3 0.6 0 1.1 0.2 1.3 0.5 0.3 0.4 0.4 1 0.5 2 0.3 3 1 5.1 2.2 6.3 1.2 1.1 2.7 1.7 4.6 1.7 2.1 0 3.8-0.7 5.4-2.1 1.5-1.4 2.3-3.1 2.3-5 0-1-0.3-2-0.9-3.1 -0.6-1.1-2.3-3-5-5.6 -2.8-2.6-4.6-4.9-5.4-6.7 -0.9-1.8-1.3-3.6-1.3-5.3 0-3 1.1-5.8 3.4-8.3 2.3-2.5 5.3-3.8 9-3.8 2.8 0 5.2 0.7 7.1 2 1.9 1.3 2.8 2.4 2.8 3.3Z" class="k"/><path d="m511.8 115.5c-2.5 2.4-4.7 4.2-6.6 5.4 -2 1.2-4.1 1.7-6.5 1.7 -2.6 0-4.8-0.8-6.4-2.5 -1.6-1.7-2.4-3.9-2.4-6.7 0-4.1 1.4-7.8 4.3-11.2 2.8-3.3 6-5 9.5-5 1.8 0 3.2 0.5 4.3 1.4 1.1 0.9 1.6 2.2 1.6 3.7 0 4-4.3 7.3-12.8 9.8 0.8 3.8 2.8 5.7 6.1 5.7 1.3 0 2.5-0.3 3.7-1 1.2-0.7 2.9-2.2 5.3-4.6Zm-15.2-5.4c5-1.4 7.4-4 7.4-7.7 0-1.9-0.7-2.8-2-2.8 -1.3 0-2.5 1-3.7 2.9 -1.2 1.9-1.7 4.5-1.7 7.6Z" class="k"/><path d="m540 115.5c-4.9 4.8-8.6 7.2-11.3 7.2 -1.2 0-2.2-0.5-3-1.5 -0.8-1-1.2-2.2-1.2-3.7 0-2.7 1.5-6.4 4.4-11 -1.4 0.7-3 1.3-4.7 1.5 -1.3 2.3-3.2 4.8-5.9 7.5l-0.7 0 0-2.6c1.5-1.6 2.9-3.3 4.1-5.1 -1.7-0.7-2.5-1.8-2.5-3.3 0-1.5 0.5-3.1 1.5-4.8 1-1.7 2.4-2.5 4.2-2.5 1.5 0 2.3 0.8 2.3 2.3 0 1.2-0.4 3-1.3 5.2 3.2-0.3 6-2.8 8.4-7.4l2.6-0.1 -2.7 7.4c-1.1 3.1-1.9 5.3-2.2 6.4 -0.3 1.1-0.5 2.1-0.5 3 0 0.8 0.2 1.5 0.6 1.9 0.4 0.5 0.9 0.7 1.5 0.7 0.7 0 1.4-0.2 2-0.7 0.6-0.5 2.1-1.8 4.3-3.9Z" class="k"/><path d="m572.5 115.5c-0.9 0.8-1.8 1.3-2.7 1.7 -0.9 0.3-1.6 0.5-2.1 0.5 -1.4 0-2.8-0.5-4.2-1.6 -3.5 4.4-7.1 6.6-11 6.6 -2 0-3.6-0.7-4.7-2.1 -1.1-1.4-1.7-3.3-1.7-5.8 0-2.7 0.7-6.1 2-10.1l2-6 7.9-1.5 -3.5 10.5c-0.4 1.1-0.7 2.5-1 4.1 -0.3 1.6-0.5 2.7-0.5 3.4 0 1 0.3 1.9 0.8 2.6 0.6 0.7 1.2 1.1 2 1.1 1.9 0 3.9-1.6 6-4.8 -1-2-1.5-4-1.5-6 0-2.8 0.7-5.3 2.2-7.5 1.5-2.2 3.1-3.3 4.8-3.3 1.3 0 2 1 2 3.1 0 3.9-1.6 8.5-4.8 13.6 1 0.9 2 1.4 3.1 1.4 1.3 0 2.9-1.1 4.8-3.2Z" class="k"/><path d="m592.6 85.9c0 4.7-1.7 7-5.1 7 -1.7 0-3.1-0.5-4.3-1.5 1.1-1.7 2-3.6 2.6-5.8 1.5 0.9 2.8 1.4 3.7 1.4 1 0 2.1-0.4 3.1-1.1Zm0.6 29.6c-4.5 4.8-7.9 7.2-10.2 7.2 -1.2 0-2.3-0.6-3.1-1.9 -0.9-1.3-1.3-2.9-1.3-4.8 0-4.1 1.4-9.8 4.2-17.2l7.4-1.5 0.3 0 -2.9 9.1c-1.2 3.8-1.8 6.4-1.8 8.1 0 0.6 0.1 1.2 0.4 1.6 0.3 0.4 0.6 0.6 1.1 0.6 0.8 0 1.5-0.3 2.3-0.8 0.8-0.6 2-1.7 3.6-3.6Z" class="k"/><path d="m621.3 115.5c-2.5 2.4-4.8 4.2-6.8 5.4 -2.1 1.1-4.2 1.7-6.5 1.7 -2.5 0-4.6-0.8-6.2-2.5 -1.6-1.6-2.5-3.7-2.5-6.2 0-4.1 1.5-7.9 4.5-11.4 3-3.5 6.3-5.2 9.8-5.2 1.7 0 3.1 0.5 4.2 1.4 1.1 1 1.6 2.2 1.6 3.7 0 0.5-0.1 0.9-0.3 1.2 -0.2 0.3-0.6 0.5-1.1 0.8l-3.4 1.6c-0.4 0.2-0.7 0.3-0.9 0.3 -0.3 0-0.4-0.2-0.4-0.6 0-0.2 0.1-0.7 0.2-1.5 0.1-0.9 0.2-1.4 0.2-1.6 0-0.9-0.2-1.5-0.5-2.1 -0.4-0.5-0.8-0.8-1.4-0.8 -1.4 0-2.7 1-3.9 3.1 -1.2 2.1-1.8 4.5-1.8 7.2 0 2.3 0.6 4.1 1.7 5.5 1.1 1.4 2.6 2.1 4.4 2.1 1.6 0 3-0.5 4.4-1.4 1.4-0.9 3-2.3 4.7-4.1Z" class="k"/><path d="m649.5 115.5c-2.5 2.4-4.7 4.2-6.6 5.4 -2 1.2-4.1 1.7-6.5 1.7 -2.6 0-4.8-0.8-6.4-2.5 -1.6-1.7-2.4-3.9-2.4-6.7 0-4.1 1.4-7.8 4.3-11.2 2.8-3.3 6-5 9.5-5 1.8 0 3.2 0.5 4.3 1.4 1.1 0.9 1.6 2.2 1.6 3.7 0 4-4.3 7.3-12.8 9.8 0.8 3.8 2.8 5.7 6.1 5.7 1.3 0 2.5-0.3 3.7-1 1.2-0.7 2.9-2.2 5.3-4.6Zm-15.2-5.4c5-1.4 7.4-4 7.4-7.7 0-1.9-0.7-2.8-2-2.8 -1.3 0-2.5 1-3.7 2.9 -1.2 1.9-1.7 4.5-1.7 7.6Z" class="k"/><path d="m687 115.5c-2.8 2.8-4.9 4.6-6.4 5.6 -1.5 1-2.8 1.5-3.9 1.5 -1.4 0-2.5-0.7-3.3-2 -0.8-1.3-1.2-3.3-1.2-5.9 -1.6 2.6-3.3 4.5-5.2 5.9 -1.9 1.3-3.6 2-5.1 2 -1.6 0-3.1-0.8-4.4-2.3 -1.3-1.6-1.9-3.4-1.9-5.5 0-4.3 1.6-8.3 4.7-12 3.2-3.7 6.5-5.5 10.2-5.5 1 0 1.8 0.1 2.4 0.4 0.6 0.3 1.2 0.8 1.9 1.5l4.2-17.4c3.4-0.8 5.7-1.2 6.9-1.2 0.4 0 0.6 0.2 0.6 0.5 0 0.2-0.5 2.2-1.5 6 -3.9 15.2-5.8 24.4-5.8 27.5 0 0.7 0.2 1.3 0.5 1.8 0.3 0.4 0.7 0.7 1.2 0.7 1.2 0 3.3-1.6 6.1-4.8Zm-21 1.5c1.9 0 3.7-1.6 5.3-4.8 1.6-3.2 2.5-6.2 2.5-9 0-1.1-0.3-2.1-0.8-2.7 -0.5-0.7-1.2-1-2-1 -1.8 0-3.5 1.7-5.2 5 -1.7 3.4-2.5 6.4-2.5 9.1 0 1.1 0.2 1.9 0.7 2.5 0.5 0.6 1.2 0.9 2 0.9Z" class="k"/></g><path d="m441.4 67.6l256.5 0" class="l"/><path d="m441.4 134.3l256.5 0" class="l"/><path d="m719.7 210.8c23.3-26.6 39.9-59.6 46.5-96.9 2.7-15.1 3.6-30.1 2.8-44.9" class="m"/><path d="M368.1 69C365.3 123.2 384.8 174.5 419.3 213l0.3 0" class="m"/><path d="m407 252.7c95.9 89.5 246.2 84.2 335.7-11.7 89.5-95.9 84.2-246.2-11.7-335.7 -95.9-89.5-246.2-84.2-335.7 11.7 -89.5 95.9-84.2 246.2 11.7 335.7Z" class="n"/></g></svg>